<svg width="12" height="12" fill="none" xmlns="http://www.w3.org/2000/svg"><path fill="#EBD1FF" d="M0 0h12v12H0z"/><path fill-rule="evenodd" clip-rule="evenodd" d="m2.572 1.679 3.994 3.889a.6.6 0 0 1 0 .864l-3.994 3.889a.64.64 0 0 1-.888 0 .6.6 0 0 1 0-.864L5.234 6l-3.55-3.457a.6.6 0 0 1 0-.864.64.64 0 0 1 .888 0Z" fill="#7033AC"/><path fill-rule="evenodd" clip-rule="evenodd" d="M9.428 1.679 5.434 5.568a.6.6 0 0 0 0 .864l3.994 3.889a.64.64 0 0 0 .888 0 .6.6 0 0 0 0-.864L6.766 6l3.55-3.457a.6.6 0 0 0 0-.864.64.64 0 0 0-.888 0Z" fill="#7033AC"/></svg>