<svg width="20" height="20" fill="none" xmlns="http://www.w3.org/2000/svg"><path fill="#EBD1FF" d="M0 0h20v20H0z"/><path fill-rule="evenodd" clip-rule="evenodd" d="m4.286 2.798 6.658 6.482a1 1 0 0 1 0 1.44l-6.658 6.482a1.066 1.066 0 0 1-1.48 0 1 1 0 0 1 0-1.44L8.724 10 2.806 4.239a1 1 0 0 1 0-1.44 1.066 1.066 0 0 1 1.48 0Z" fill="#7033AC"/><path fill-rule="evenodd" clip-rule="evenodd" d="M15.714 2.798 9.056 9.28a1 1 0 0 0 0 1.44l6.658 6.482c.409.397 1.071.397 1.48 0a1 1 0 0 0 0-1.44L11.276 10l5.918-5.761a1 1 0 0 0 0-1.44 1.066 1.066 0 0 0-1.48 0Z" fill="#7033AC"/></svg>