<svg width="32" height="32" fill="none" xmlns="http://www.w3.org/2000/svg"><rect x="1" y="1" width="30" height="30" rx="9" stroke="#A65CF0" stroke-width="2"/><path d="M19.875 22h-7.734v-1.383l2.96-3a37.486 37.486 0 0 0 1.415-1.508c.37-.427.643-.83.82-1.21.182-.38.273-.795.273-1.243 0-.552-.159-.969-.476-1.25-.318-.286-.737-.43-1.258-.43-.495 0-.953.1-1.375.297a6.383 6.383 0 0 0-1.297.829l-1.008-1.211c.318-.271.657-.519 1.016-.743.364-.223.77-.4 1.219-.53a5.293 5.293 0 0 1 1.53-.204c.725 0 1.35.13 1.876.39.526.256.93.613 1.21 1.071.287.458.43.992.43 1.602 0 .614-.122 1.182-.367 1.703a6.544 6.544 0 0 1-1.047 1.547 29.21 29.21 0 0 1-1.617 1.648l-1.976 1.93v.086h5.406V22Z" fill="#A65CF0"/></svg>