<svg width="32" height="32" fill="none" xmlns="http://www.w3.org/2000/svg"><path d="M19.445 13.203c0 .724-.21 1.328-.633 1.813-.421.479-1.015.802-1.78.968v.063c.916.114 1.603.4 2.062.86.458.452.687 1.056.687 1.812 0 1.099-.388 1.948-1.164 2.547-.776.593-1.88.89-3.312.89-1.266 0-2.334-.205-3.203-.617v-1.633c.484.24.997.425 1.539.555.541.13 1.062.195 1.562.195.886 0 1.547-.164 1.985-.492.437-.328.656-.836.656-1.523 0-.61-.242-1.058-.727-1.344-.484-.287-1.245-.43-2.281-.43h-.992v-1.492h1.008c1.822 0 2.734-.63 2.734-1.89 0-.49-.159-.868-.477-1.133-.317-.266-.786-.399-1.406-.399-.432 0-.849.063-1.25.188-.4.12-.875.356-1.422.71l-.898-1.28c1.047-.771 2.263-1.157 3.648-1.157 1.151 0 2.05.248 2.696.742.645.495.968 1.177.968 2.047Z" fill="#A65CF0"/><rect x="1" y="1" width="30" height="30" rx="9" stroke="#A65CF0" stroke-width="2"/></svg>